<svg width="165" height="143" viewBox="0 0 165 143" fill="none" xmlns="http://www.w3.org/2000/svg">
<path fill-rule="evenodd" clip-rule="evenodd" d="M89.625 142.125C101.395 142.125 113.049 139.807 123.923 135.303C134.797 130.799 144.677 124.197 152.999 115.874C161.322 107.552 167.924 97.6718 172.428 86.798C176.932 75.9242 179.25 64.2697 179.25 52.5C179.25 40.7303 176.932 29.0758 172.428 18.202C167.924 7.32819 161.322 -2.552 152.999 -10.8744C144.677 -19.1969 134.797 -25.7986 123.923 -30.3027C113.049 -34.8068 101.395 -37.125 89.625 -37.125C65.855 -37.125 43.0585 -27.6824 26.2506 -10.8744C9.44261 5.9335 0 28.73 0 52.5C0 76.27 9.44261 99.0665 26.2506 115.874C43.0585 132.682 65.855 142.125 89.625 142.125ZM87.3147 88.7483L137.106 28.9983L121.81 16.2517L78.9895 67.6267L56.8322 45.4595L42.7511 59.5405L72.6261 89.4155L80.3339 97.1233L87.3147 88.7483Z" fill="white" fill-opacity="0.5"/>
</svg>
