<svg width="141" height="142" viewBox="0 0 141 142" fill="none" xmlns="http://www.w3.org/2000/svg">
<g clip-path="url(#clip0_124_1017)">
<mask id="mask0_124_1017" style="mask-type:luminance" maskUnits="userSpaceOnUse" x="0" y="-19" width="161" height="161">
<path d="M0 -19H161V142H0V-19Z" fill="white"/>
<path fill-rule="evenodd" clip-rule="evenodd" d="M58.2079 29.8078V57.2768L105.269 70.1135V16.9711L58.2079 29.8078ZM52.0156 57.2768C52.0153 58.6356 52.462 59.9567 53.2867 61.0366C54.1114 62.1165 55.2684 62.8951 56.5794 63.2524L103.641 76.0891C104.56 76.3396 105.525 76.3747 106.46 76.1916C107.395 76.0085 108.275 75.6121 109.031 75.0333C109.788 74.4545 110.401 73.7089 110.823 72.8546C111.244 72.0002 111.463 71.06 111.462 70.1073V16.9711C111.462 16.0189 111.243 15.0795 110.821 14.2259C110.399 13.3723 109.786 12.6275 109.029 12.0494C108.272 11.4713 107.393 11.0755 106.458 10.8927C105.524 10.7099 104.56 10.7451 103.641 10.9955L56.5794 23.8322C55.2684 24.1895 54.1114 24.9682 53.2867 26.048C52.462 27.1279 52.0153 28.449 52.0156 29.8078V57.2768Z" fill="black"/>
<path fill-rule="evenodd" clip-rule="evenodd" d="M39.9777 57.1654H52.6348V29.9192H39.9591C36.7559 33.737 35.0017 38.5621 35.0051 43.5457C35.0085 48.5293 36.7693 53.352 39.9777 57.1654ZM52.6348 63.3577C54.2771 63.3577 55.8521 62.7053 57.0134 61.544C58.1747 60.3827 58.8271 58.8077 58.8271 57.1654V29.9192C58.8271 28.2769 58.1747 26.7019 57.0134 25.5406C55.8521 24.3793 54.2771 23.7269 52.6348 23.7269H38.7206C38.257 23.7265 37.7982 23.8208 37.3723 24.0039C36.9464 24.1871 36.5623 24.4552 36.2437 24.792C26.3236 35.2632 26.367 51.7471 36.2313 62.2678C36.5537 62.61 36.9422 62.883 37.3733 63.0704C37.8044 63.2578 38.2691 63.3555 38.7392 63.3577H52.6348Z" fill="black"/>
<path fill-rule="evenodd" clip-rule="evenodd" d="M63.5888 66.8873L48.0461 65.1535L41.99 89.3654H58.3129L63.5888 66.8873ZM48.7272 59.0045C47.2385 58.838 45.7398 59.2168 44.5089 60.0707C43.2781 60.9247 42.3986 62.1959 42.0333 63.6487L35.9835 87.8607C35.7547 88.7737 35.7372 89.7269 35.9321 90.6478C36.127 91.5686 36.5293 92.4329 37.1084 93.175C37.6875 93.917 38.4281 94.5173 39.274 94.9302C40.1199 95.3431 41.0487 95.5577 41.99 95.5577H58.3129C59.7101 95.5582 61.0664 95.0861 62.1614 94.2182C63.2564 93.3504 64.0257 92.1377 64.3442 90.7773L69.6201 68.2992C69.8208 67.446 69.8381 66.5599 69.6708 65.6995C69.5036 64.8391 69.1556 64.024 68.6499 63.3081C68.1441 62.5923 67.4922 61.9919 66.7371 61.5468C65.9821 61.1017 65.1411 60.8219 64.2699 60.726L48.7272 59.0045ZM133.853 19.5347C134.307 20.218 134.472 21.0539 134.311 21.8585C134.149 22.6632 133.675 23.3708 132.992 23.826L123.704 30.0183C123.366 30.2579 122.983 30.4273 122.579 30.5163C122.174 30.6054 121.756 30.6124 121.349 30.5369C120.941 30.4614 120.553 30.305 120.208 30.0768C119.862 29.8486 119.565 29.5534 119.336 29.2086C119.106 28.8638 118.948 28.4765 118.871 28.0695C118.794 27.6625 118.799 27.2442 118.886 26.8393C118.974 26.4344 119.142 26.0511 119.38 25.7122C119.618 25.3733 119.922 25.0857 120.273 24.8663L129.562 18.674C130.245 18.2194 131.081 18.0548 131.885 18.2162C132.69 18.3776 133.398 18.8518 133.853 19.5347ZM118.892 43.5423C118.892 42.7212 119.218 41.9336 119.799 41.353C120.38 40.7724 121.167 40.4462 121.988 40.4462H131.277C132.098 40.4462 132.886 40.7724 133.466 41.353C134.047 41.9336 134.373 42.7212 134.373 43.5423C134.373 44.3635 134.047 45.151 133.466 45.7316C132.886 46.3123 132.098 46.6385 131.277 46.6385H121.988C121.167 46.6385 120.38 46.3123 119.799 45.7316C119.218 45.151 118.892 44.3635 118.892 43.5423ZM119.617 57.3512C119.879 57.0399 120.2 56.7834 120.561 56.5962C120.922 56.409 121.317 56.295 121.723 56.2605C122.128 56.2259 122.536 56.2717 122.924 56.3951C123.312 56.5185 123.671 56.7171 123.982 56.9796L132.528 64.1565C133.122 64.6943 133.485 65.4417 133.54 66.2415C133.594 67.0412 133.337 67.831 132.821 68.4447C132.305 69.0583 131.571 69.448 130.774 69.5317C129.977 69.6155 129.178 69.3867 128.546 68.8936L120.001 61.7106C119.372 61.1831 118.979 60.4277 118.907 59.6103C118.835 58.7929 119.09 57.9803 119.617 57.3512Z" fill="black"/>
</mask>
<g mask="url(#mask0_124_1017)">
<path d="M80.5 142C124.959 142 161 105.959 161 61.5C161 17.0411 124.959 -19 80.5 -19C36.0411 -19 0 17.0411 0 61.5C0 105.959 36.0411 142 80.5 142Z" fill="white" fill-opacity="0.5"/>
</g>
</g>
<defs>
<clipPath id="clip0_124_1017">
<rect width="161" height="161" fill="white" transform="translate(0 -19)"/>
</clipPath>
</defs>
</svg>
