<svg width="148" height="141" viewBox="0 0 148 141" fill="none" xmlns="http://www.w3.org/2000/svg">
<path d="M24.3189 117.681C16.3916 110.025 10.0684 100.866 5.71849 90.7396C1.36854 80.6132 -0.921119 69.722 -1.01689 58.7013C-1.11265 47.6806 0.987389 36.7512 5.1607 26.5508C9.33402 16.3504 15.497 7.08331 23.2901 -0.709785C31.0832 -8.50288 40.3503 -14.6659 50.5507 -18.8392C60.7511 -23.0125 71.6805 -25.1126 82.7012 -25.0168C93.7219 -24.921 104.613 -22.6314 114.739 -18.2814C124.866 -13.9315 134.024 -7.60835 141.681 0.319C156.8 15.973 165.166 36.939 164.977 58.7013C164.788 80.4636 156.059 101.281 140.67 116.67C125.281 132.059 104.464 140.788 82.7012 140.977C60.9389 141.166 39.9729 132.8 24.3189 117.681ZM74.6999 17.5V67.3H91.2999V17.5H74.6999ZM74.6999 83.9V100.5H91.2999V83.9H74.6999Z" fill="white" fill-opacity="0.5"/>
</svg>
