<?xml version="1.0" encoding="UTF-8"?>
<svg version="1.1" xmlns="http://www.w3.org/2000/svg" width="512" height="184">
<path d="M0 0 C4.58974462 -0.1241194 9.17850086 -0.21457876 13.76953125 -0.2746582 C15.32927479 -0.29971627 16.8889019 -0.33377301 18.44824219 -0.37719727 C20.69755843 -0.43824193 22.9453156 -0.46629426 25.1953125 -0.48828125 C25.8861795 -0.51408768 26.57704651 -0.5398941 27.28884888 -0.56648254 C31.1615773 -0.56869776 33.07520468 0.04820547 36.36279297 2.15551758 C41.44383335 7.63591024 41.28184041 13.18740895 41.2734375 20.2734375 C41.29372652 22.08594367 41.3145773 23.89844363 41.3359375 25.7109375 C41.35850519 28.54367346 41.3750024 31.3761627 41.38085938 34.20898438 C41.39043173 36.96007927 41.42426035 39.71008844 41.4609375 42.4609375 C41.45589203 43.29764984 41.45084656 44.13436218 41.44564819 44.99642944 C41.55129913 51.37599713 43.06412412 56.65306542 47.34091187 61.52865601 C51.42128088 65.26175237 55.66207616 66.89757273 61.1640625 67.06640625 C66.8521113 66.74388802 71.92850006 65.1063736 76 61 C79.73342599 55.24250891 80.57052716 50.29255512 80.50390625 43.53125 C80.51332748 42.65150513 80.52274872 41.77176025 80.53245544 40.86535645 C80.56092065 38.07666311 80.56419078 35.28882622 80.5625 32.5 C80.56612294 29.71129959 80.57581269 26.92321645 80.60325623 24.13464355 C80.61987629 22.40726426 80.62305475 20.67968226 80.61024475 18.95227051 C80.66851621 12.22705336 81.63292485 6.65657355 86.20581055 1.52441406 C89.76094562 -0.41514587 92.76403054 -0.50757974 96.70703125 -0.390625 C97.79512337 -0.38213531 97.79512337 -0.38213531 98.90519714 -0.37347412 C101.20832008 -0.35119099 103.50985224 -0.30101487 105.8125 -0.25 C107.37953472 -0.22992434 108.94659399 -0.21167543 110.51367188 -0.1953125 C114.34305519 -0.15135337 118.17125846 -0.08238623 122 0 C122.09350426 7.18996898 122.16416596 14.37980264 122.20724869 21.570261 C122.22794777 24.91075139 122.25816345 28.25050472 122.30175781 31.59082031 C122.35081059 35.44867663 122.3730911 39.30594894 122.390625 43.1640625 C122.41127014 44.33860992 122.43191528 45.51315735 122.45318604 46.72329712 C122.45783973 64.28492873 116.03077436 78.82369684 103.859375 91.26953125 C91.68060774 102.89925572 76.74850497 108.80411105 60 109 C43.30276194 108.04384851 27.58778019 101.76981967 15.9765625 89.41796875 C6.3797828 77.67803469 -0.14917378 64.74142155 -0.11352539 49.27001953 C-0.11344986 48.16933136 -0.11337433 47.06864319 -0.11329651 45.93460083 C-0.10813522 44.76251068 -0.10297394 43.59042053 -0.09765625 42.3828125 C-0.0962413 41.17051971 -0.09482635 39.95822693 -0.09336853 38.709198 C-0.08778345 34.84777327 -0.07523361 30.98640712 -0.0625 27.125 C-0.05748308 24.50260501 -0.0529205 21.8802091 -0.04882812 19.2578125 C-0.03781889 12.83852178 -0.02109555 6.41926507 0 0 Z " fill="#808184" transform="translate(3,72)"/>
<path d="M0 0 C4.29 0.33 8.58 0.66 13 1 C15.25042508 1.09429685 17.50186319 1.17085051 19.75390625 1.2109375 C20.87603516 1.23929687 21.99816406 1.26765625 23.15429688 1.296875 C25.43017121 1.34904404 27.7062407 1.3932894 29.98242188 1.4296875 C39.24286954 1.68529503 48.63632998 2.40420995 56.4375 7.8125 C59.18474767 9.82084734 59.18474767 9.82084734 62.5 9.5625 C63.7375 8.7890625 63.7375 8.7890625 65 8 C66.2408419 7.31643887 67.49193569 6.65132069 68.75 6 C69.34296875 5.67 69.9359375 5.34 70.546875 5 C78.51689337 1.75107531 86.74817344 1.63223457 95.25 1.4375 C97.54694765 1.37636946 99.84382593 1.31257318 102.140625 1.24609375 C103.14641602 1.22216553 104.15220703 1.1982373 105.18847656 1.17358398 C110.80013897 0.91801827 116.3990675 0.43084096 122 0 C122 11.88 122 23.76 122 36 C115.52823703 38.15725432 108.39791206 38.03296651 101.625 38.17578125 C100.53703125 38.19962891 99.4490625 38.22347656 98.328125 38.24804688 C96.10957094 38.29101183 93.89075909 38.32226444 91.671875 38.34179688 C80.92718754 38.61550633 72.38494301 40.76407587 64.75390625 48.609375 C63 50 63 50 59 50 C57.86024478 48.82672257 56.72499643 47.6484774 55.62109375 46.44140625 C49.71332156 41.18847146 42.13722591 38.94263256 34.4140625 38.75390625 C33.31707031 38.72103516 32.22007813 38.68816406 31.08984375 38.65429688 C28.81908462 38.59413584 26.54825007 38.53674344 24.27734375 38.48242188 C15.94187959 38.22587158 8.37552637 37.19650377 0 36 C0 24.12 0 12.24 0 0 Z " fill="#AD1317" transform="translate(3,3)"/>
<path d="M0 0 C4.58974462 -0.1241194 9.17850086 -0.21457876 13.76953125 -0.2746582 C15.32927479 -0.29971627 16.8889019 -0.33377301 18.44824219 -0.37719727 C20.69755843 -0.43824193 22.9453156 -0.46629426 25.1953125 -0.48828125 C25.8861795 -0.51408768 26.57704651 -0.5398941 27.28884888 -0.56648254 C31.1615773 -0.56869776 33.07520468 0.04820547 36.36279297 2.15551758 C41.37221341 7.55866122 41.27286788 13.1489966 41.13525391 20.12646484 C41.12579239 21.02466949 41.11633087 21.92287415 41.10658264 22.84829712 C41.07303614 25.80272358 41.02488506 28.7567189 40.9765625 31.7109375 C40.95038185 33.76501352 40.92511593 35.81910139 40.90072632 37.87319946 C40.83420804 43.26885008 40.75528642 48.66425034 40.67376709 54.05969238 C40.59271748 59.5696454 40.52341803 65.07974487 40.453125 70.58984375 C40.31357288 81.3934047 40.16091489 92.1967376 40 103 C29.20048049 101.64936611 20.82793101 95.35274564 14 87 C5.59622997 75.56696402 -0.14697593 63.78755564 -0.11352539 49.27001953 C-0.11344986 48.16933136 -0.11337433 47.06864319 -0.11329651 45.93460083 C-0.10813522 44.76251068 -0.10297394 43.59042053 -0.09765625 42.3828125 C-0.0962413 41.17051971 -0.09482635 39.95822693 -0.09336853 38.709198 C-0.08778345 34.84777327 -0.07523361 30.98640712 -0.0625 27.125 C-0.05748308 24.50260501 -0.0529205 21.8802091 -0.04882812 19.2578125 C-0.03781889 12.83852178 -0.02109555 6.41926507 0 0 Z " fill="#818284" transform="translate(3,72)"/>
<path d="M0 0 C1.00084625 -0.00430527 1.00084625 -0.00430527 2.02191162 -0.00869751 C3.43404997 -0.01073752 4.84621661 -0.00521193 6.25830078 0.00732422 C8.40072399 0.02327998 10.54123178 0.00752845 12.68359375 -0.01171875 C14.05989995 -0.00973433 15.43620496 -0.00588655 16.8125 0 C18.05547852 0.00338379 19.29845703 0.00676758 20.57910156 0.01025391 C23.65933893 0.3430602 25.24208729 0.74913083 27.94433594 2.00537109 C29.00942383 2.46508301 30.07451172 2.92479492 31.171875 3.3984375 C32.76433012 2.70173839 34.35335411 1.99128853 35.89453125 1.1875 C42.49896631 -1.10082913 51.4934418 -0.8577083 57.859375 2.0859375 C62.69125414 5.0626266 65.51401242 9.01402463 67.171875 14.3984375 C67.47603857 17.80708928 67.47594094 21.20445984 67.47265625 24.625 C67.47694138 25.60963226 67.4812265 26.59426453 67.48564148 27.60873413 C67.49137256 29.68478629 67.49189406 31.76085854 67.48754883 33.83691406 C67.4843792 37.01922537 67.50789689 40.20061539 67.53320312 43.3828125 C67.53547521 45.40104049 67.53618004 47.41927099 67.53515625 49.4375 C67.544366 50.39065094 67.55357574 51.34380188 67.56306458 52.32583618 C67.55683578 53.21040497 67.55060699 54.09497375 67.54418945 55.00634766 C67.54481888 55.78402496 67.5454483 56.56170227 67.5460968 57.36294556 C67.07125746 59.94572309 66.24483972 60.82714253 64.171875 62.3984375 C61.359375 62.83203125 61.359375 62.83203125 58.171875 62.8359375 C56.5940625 62.86494141 56.5940625 62.86494141 54.984375 62.89453125 C52.171875 62.3984375 52.171875 62.3984375 50.52148438 60.94799805 C48.47494438 57.08185891 48.75065309 53.42023803 48.765625 49.109375 C48.75478882 48.2097403 48.74395264 47.31010559 48.73278809 46.38320923 C48.68689609 42.53775213 48.67540107 38.69236191 48.66064453 34.84667969 C48.6450048 32.03816329 48.61202388 29.23022051 48.578125 26.421875 C48.58114624 25.54792084 48.58416748 24.67396667 48.58728027 23.77352905 C48.58819243 21.0741222 48.58819243 21.0741222 48.171875 17.3984375 C44.5276976 14.9689859 42.45946228 15.23664175 38.171875 15.3984375 C38.15729248 16.71561768 38.14270996 18.03279785 38.12768555 19.38989258 C38.06976787 24.27102988 37.99253464 29.15170268 37.90942383 34.0324707 C37.87614372 36.14600086 37.84812147 38.25962056 37.82543945 40.37329102 C37.79195028 43.40940556 37.73963736 46.44469725 37.68359375 49.48046875 C37.67400887 50.9009124 37.67400887 50.9009124 37.66423035 52.35005188 C37.64443619 53.23073837 37.62464203 54.11142487 37.60424805 55.01879883 C37.59314499 55.79379227 37.58204193 56.56878571 37.57060242 57.36726379 C37.06785271 59.9283417 36.22488502 60.82746535 34.171875 62.3984375 C31.578125 62.796875 31.578125 62.796875 28.671875 62.7734375 C27.23328125 62.78503906 27.23328125 62.78503906 25.765625 62.796875 C22.73074445 62.33067347 22.04588137 61.758498 20.171875 59.3984375 C19.87644977 56.44905899 19.75478035 53.7002154 19.765625 50.75 C19.75478882 49.90045746 19.74395264 49.05091492 19.73278809 48.17562866 C19.69849347 45.45815434 19.68293022 42.74109986 19.671875 40.0234375 C19.65729289 36.45272176 19.62356476 32.88294163 19.578125 29.3125 C19.58114624 28.4946402 19.58416748 27.6767804 19.58728027 26.83413696 C19.52847998 22.35190325 19.48056704 18.76035927 16.171875 15.3984375 C12.54588078 14.98118072 12.54588078 14.98118072 9.171875 15.3984375 C9.15729248 16.68008789 9.14270996 17.96173828 9.12768555 19.28222656 C9.0697018 24.03853215 8.99246867 28.79436435 8.90942383 33.55029297 C8.87617489 35.60848303 8.84814286 37.66676426 8.82543945 39.72509766 C8.7918931 42.68431441 8.73957698 45.64269567 8.68359375 48.6015625 C8.67400887 49.98145355 8.67400887 49.98145355 8.66423035 51.38922119 C8.51817385 57.7393164 8.51817385 57.7393164 6.81567383 60.97973633 C4.3431619 63.11366872 2.38123281 62.89493305 -0.828125 62.8359375 C-1.88 62.83464844 -2.931875 62.83335938 -4.015625 62.83203125 C-7.22665253 62.33699784 -7.92611471 61.95494043 -9.828125 59.3984375 C-10.20907593 56.93188477 -10.20907593 56.93188477 -10.21630859 53.96484375 C-10.22576508 52.85359131 -10.23522156 51.74233887 -10.2449646 50.59741211 C-10.23889191 49.39737549 -10.23281921 48.19733887 -10.2265625 46.9609375 C-10.22943268 45.72931885 -10.23230286 44.4977002 -10.23526001 43.22875977 C-10.23782658 39.95495793 -10.2257411 36.68158213 -10.20898438 33.40783691 C-10.20313053 31.40033365 -10.20896295 29.39322381 -10.21923828 27.38574219 C-10.2377348 23.53562055 -10.23553492 19.68608316 -10.2265625 15.8359375 C-10.23263519 14.63590088 -10.23870789 13.43586426 -10.2449646 12.19946289 C-10.23550812 11.08821045 -10.22605164 9.97695801 -10.21630859 8.83203125 C-10.21392181 7.85290771 -10.21153503 6.87378418 -10.20907593 5.86499023 C-9.828125 3.3984375 -9.828125 3.3984375 -8.49606323 1.58309937 C-5.79870676 -0.3327122 -3.2562231 0.00889678 0 0 Z " fill="#050505" transform="translate(441.828125,47.6015625)"/>
<path d="M0 0 C0.94746094 -0.0309375 1.89492188 -0.061875 2.87109375 -0.09375 C5.5625 0.5 5.5625 0.5 7.69262695 2.50073242 C10.1710908 6.47617678 10.1646703 9.48747311 10.171875 14.08203125 C10.19667938 15.30329964 10.19667938 15.30329964 10.22198486 16.54924011 C10.27037788 19.1370708 10.29181568 21.72431426 10.3125 24.3125 C10.34066708 26.07229503 10.37059555 27.83206281 10.40234375 29.59179688 C10.47613409 33.89448288 10.5257615 38.19684457 10.5625 42.5 C16.50214399 35.39239822 16.50214399 35.39239822 22.1015625 28.01953125 C27.50218637 21.01085645 27.50218637 21.01085645 31.46875 20.02734375 C35.88234032 19.56759476 40.16538574 19.91958092 44.5625 20.5 C45.2225 21.82 45.8825 23.14 46.5625 24.5 C43.27180355 28.33528354 39.93993291 32.11922028 36.4609375 35.78515625 C35.92178711 36.35661377 35.38263672 36.92807129 34.82714844 37.5168457 C33.7452699 38.6604216 32.65747394 39.79843196 31.56347656 40.93041992 C27.93355132 44.67107279 27.93355132 44.67107279 26.5625 49.5 C27.59771088 51.56097975 27.59771088 51.56097975 29.28125 53.51171875 C29.88453125 54.27033203 30.4878125 55.02894531 31.109375 55.81054688 C32.07617188 56.98713867 32.07617188 56.98713867 33.0625 58.1875 C34.30208333 59.73307292 35.54166667 61.27864583 36.78125 62.82421875 C38.6982042 65.20593451 40.62459705 67.57375517 42.59375 69.91259766 C43.5528125 71.07927979 43.5528125 71.07927979 44.53125 72.26953125 C45.11326172 72.96280518 45.69527344 73.6560791 46.29492188 74.37036133 C47.83014378 76.94966424 47.88635332 78.54609372 47.5625 81.5 C45.16998136 83.89251864 39.42743054 83.17602427 36.13232422 83.21679688 C32.43345839 83.08975729 30.173954 82.90479203 27.04296875 80.83203125 C24.92849521 78.17447188 23.27152525 75.43673318 21.5625 72.5 C20.10037361 70.34034543 18.60250465 68.20807208 17.10302734 66.07421875 C14.88512127 62.90799087 12.72512151 59.70417819 10.5625 56.5 C10.54268066 57.11520508 10.52286133 57.73041016 10.50244141 58.36425781 C10.40700273 61.15992542 10.29740045 63.9548651 10.1875 66.75 C10.1565625 67.71808594 10.125625 68.68617187 10.09375 69.68359375 C10.05507813 70.61816406 10.01640625 71.55273438 9.9765625 72.515625 C9.9451416 73.37446289 9.9137207 74.23330078 9.88134766 75.11816406 C9.54039815 77.66510387 8.92475106 79.32983905 7.5625 81.5 C4.98241408 82.79004296 3.00508426 82.70410224 0.125 82.75 C-0.84308594 82.77578125 -1.81117188 82.8015625 -2.80859375 82.828125 C-5.4375 82.5 -5.4375 82.5 -7.07754517 81.43383789 C-9.11391044 78.53815325 -8.85549872 75.64348515 -8.82568359 72.23046875 C-8.83094055 71.49357819 -8.83619751 70.75668762 -8.84161377 69.99746704 C-8.85482234 67.56059602 -8.84607302 65.12437772 -8.8359375 62.6875 C-8.837958 60.99503453 -8.84086923 59.30256991 -8.84463501 57.61010742 C-8.84905951 54.06257846 -8.84262335 50.51527607 -8.82861328 46.96777344 C-8.8115212 42.41782091 -8.82136173 37.86839923 -8.83933067 33.31846619 C-8.85016518 29.82348624 -8.84672373 26.3286324 -8.8389473 22.83364868 C-8.83694436 21.15589332 -8.83940785 19.47812656 -8.84638596 17.80038452 C-8.85399511 15.45645775 -8.84240465 13.11339368 -8.82568359 10.76953125 C-8.83175629 10.07437408 -8.83782898 9.37921692 -8.84408569 8.66299438 C-8.80639172 5.81454143 -8.74690674 3.936562 -7.07315063 1.57495117 C-4.70129247 0.0161637 -2.81638164 0.03057131 0 0 Z " fill="#030303" transform="translate(312.4375,27.5)"/>
<path d="M0 0 C1.27166016 -0.020625 2.54332031 -0.04125 3.85351562 -0.0625 C5.08392578 -0.06765625 6.31433594 -0.0728125 7.58203125 -0.078125 C8.70456299 -0.0874707 9.82709473 -0.09681641 10.98364258 -0.10644531 C16.27739928 0.48251185 20.15677754 2.64081014 23.5 6.75 C24.23669922 7.63171875 24.23669922 7.63171875 24.98828125 8.53125 C28.51053282 13.57942814 27.89723566 20.40988947 27.1875 26.25 C25.17130626 31.16142004 22.55746958 34.35532599 18.125 37.25 C12.13481178 39.28921301 6.64445935 39.37327776 0.375 39.3125 C-0.95047852 39.30573242 -0.95047852 39.30573242 -2.30273438 39.29882812 C-4.47268559 39.28709866 -6.64260172 39.26916495 -8.8125 39.25 C-9.02220559 43.39093698 -9.02220559 43.39093698 -7.8125 47.25 C-6.95495117 47.2593457 -6.09740234 47.26869141 -5.21386719 47.27832031 C-2.02277321 47.32241291 1.16736756 47.38406056 4.35791016 47.45751953 C5.73701651 47.48569099 7.11628318 47.50692472 8.49560547 47.52099609 C10.48172949 47.54247545 12.46749909 47.59123132 14.453125 47.640625 C15.64711914 47.66157227 16.84111328 47.68251953 18.07128906 47.70410156 C21.76022117 48.35032941 22.96837243 49.2808208 25.1875 52.25 C25.66135785 55.49931098 25.57672749 57.43939265 24.15307617 60.40429688 C21.20383554 63.17367449 18.14025484 62.82287396 14.30078125 62.78125 C13.52494186 62.7850769 12.74910248 62.78890381 11.94975281 62.79284668 C10.30641383 62.79556848 8.66303173 62.78818838 7.01977539 62.77148438 C4.52584803 62.75022039 2.034849 62.77119847 -0.45898438 62.796875 C-2.05990212 62.79422894 -3.66081806 62.78909821 -5.26171875 62.78125 C-5.99847336 62.78934692 -6.73522797 62.79744385 -7.49430847 62.80578613 C-12.95593882 62.70885771 -17.40189344 61.58437008 -21.8125 58.25 C-26.51404256 53.12389286 -27.5578869 48.14164531 -27.44140625 41.3671875 C-27.44381821 40.54928741 -27.44623016 39.73138733 -27.44871521 38.88870239 C-27.44774225 37.17265944 -27.43448114 35.45658293 -27.40942383 33.74072266 C-27.37498996 31.12423708 -27.38882286 28.51111295 -27.40820312 25.89453125 C-27.40130664 24.21873574 -27.39163604 22.54294885 -27.37890625 20.8671875 C-27.38386612 20.09204803 -27.38882599 19.31690857 -27.39393616 18.51828003 C-27.26538612 12.55592907 -25.43698006 8.95148192 -21.21484375 4.60546875 C-14.47190672 -0.77089971 -8.31973011 0.03342935 0 0 Z M-7.8125 14.25 C-9.87175681 17.33888522 -10.0515374 17.95935927 -9.9375 21.4375 C-9.89625 22.695625 -9.855 23.95375 -9.8125 25.25 C-7.02076945 25.27690104 -4.22929652 25.29679053 -1.4375 25.3125 C-0.24640625 25.32506836 -0.24640625 25.32506836 0.96875 25.33789062 C5.21142222 25.48040151 5.21142222 25.48040151 9.1875 24.25 C9.21439216 22.77093108 9.23384621 21.29172517 9.25 19.8125 C9.26160156 18.98878906 9.27320313 18.16507813 9.28515625 17.31640625 C9.42017348 15.25836062 9.42017348 15.25836062 8.1875 14.25 C5.52747189 14.09682009 2.9112812 14.01840125 0.25 14 C-0.8627832 13.9690625 -0.8627832 13.9690625 -1.99804688 13.9375 C-4.40717535 13.88537261 -4.40717535 13.88537261 -7.8125 14.25 Z " fill="#010101" transform="translate(235.8125,47.75)"/>
<path d="M0 0 C1.27166016 -0.020625 2.54332031 -0.04125 3.85351562 -0.0625 C5.08392578 -0.06765625 6.31433594 -0.0728125 7.58203125 -0.078125 C8.70456299 -0.0874707 9.82709473 -0.09681641 10.98364258 -0.10644531 C16.27739928 0.48251185 20.15677754 2.64081014 23.5 6.75 C24.23669922 7.63171875 24.23669922 7.63171875 24.98828125 8.53125 C27.71832943 12.44402263 27.3648539 16.63995856 27.390625 21.20703125 C27.39632507 21.98761398 27.40202515 22.76819672 27.40789795 23.57243347 C27.4173395 25.22413786 27.42387858 26.87586102 27.42773438 28.52758789 C27.43742418 31.04281887 27.46844801 33.55722691 27.5 36.07226562 C27.50653214 37.67968267 27.51178178 39.28710553 27.515625 40.89453125 C27.5279718 41.64160843 27.5403186 42.38868561 27.55303955 43.15840149 C27.52916551 48.81138234 26.33163462 52.92556315 22.46875 57.11328125 C21.8809375 57.59152344 21.293125 58.06976563 20.6875 58.5625 C19.80578125 59.29919922 19.80578125 59.29919922 18.90625 60.05078125 C13.70975722 63.67651599 6.54622711 62.51662574 0.5 62.5625 C-1.38235352 62.60600586 -1.38235352 62.60600586 -3.30273438 62.65039062 C-16.25211179 62.73903829 -16.25211179 62.73903829 -21.8125 58.25 C-26.28357465 52.9055935 -27.55916301 48.21586356 -27.44140625 41.3671875 C-27.44381821 40.54928741 -27.44623016 39.73138733 -27.44871521 38.88870239 C-27.44774225 37.17265944 -27.43448114 35.45658293 -27.40942383 33.74072266 C-27.37498996 31.12423708 -27.38882286 28.51111295 -27.40820312 25.89453125 C-27.40130664 24.21873574 -27.39163604 22.54294885 -27.37890625 20.8671875 C-27.38386612 20.09204803 -27.38882599 19.31690857 -27.39393616 18.51828003 C-27.26538612 12.55592907 -25.43698006 8.95148192 -21.21484375 4.60546875 C-14.47190672 -0.77089971 -8.31973011 0.03342935 0 0 Z M-7.8125 14.25 C-10.17831001 17.79871501 -10.06978806 19.35591953 -10.078125 23.5625 C-10.08070313 24.80257812 -10.08328125 26.04265625 -10.0859375 27.3203125 C-10.07820313 28.61710937 -10.07046875 29.91390625 -10.0625 31.25 C-10.07023437 32.54679687 -10.07796875 33.84359375 -10.0859375 35.1796875 C-10.08335937 36.41976562 -10.08078125 37.65984375 -10.078125 38.9375 C-10.07586914 40.07574219 -10.07361328 41.21398437 -10.07128906 42.38671875 C-10.02419711 45.44980153 -10.02419711 45.44980153 -7.8125 48.25 C-5.04058898 48.49849576 -2.51362612 48.57683409 0.25 48.5 C0.99572266 48.49484375 1.74144531 48.4896875 2.50976562 48.484375 C6.14864017 48.75438465 6.14864017 48.75438465 9.1875 47.25 C9.2882812 44.88601532 9.32723215 42.55188689 9.3203125 40.1875 C9.32126923 39.48101318 9.32222595 38.77452637 9.32321167 38.04663086 C9.32389333 36.55029207 9.32204005 35.05395033 9.31787109 33.55761719 C9.31252257 31.25969843 9.31781651 28.96197514 9.32421875 26.6640625 C9.32355797 25.21354123 9.3222768 23.76302009 9.3203125 22.3125 C9.32233673 21.6208374 9.32436096 20.9291748 9.32644653 20.21655273 C9.58980733 16.95264362 9.58980733 16.95264362 8.1875 14.25 C5.52747189 14.09682009 2.9112812 14.01840125 0.25 14 C-0.8627832 13.9690625 -0.8627832 13.9690625 -1.99804688 13.9375 C-4.40717535 13.88537261 -4.40717535 13.88537261 -7.8125 14.25 Z " fill="#030303" transform="translate(391.8125,47.75)"/>
<path d="M0 0 C4.29 0.33 8.58 0.66 13 1 C15.25042508 1.09429685 17.50186319 1.17085051 19.75390625 1.2109375 C20.87603516 1.23929687 21.99816406 1.26765625 23.15429688 1.296875 C25.43017121 1.34904404 27.7062407 1.3932894 29.98242188 1.4296875 C40.63850144 1.72381736 51.51476026 2.95608866 60 10 C61.61301773 13.22603545 61.12053599 16.74710038 61.09765625 20.2890625 C61.0962413 21.10748627 61.09482635 21.92591003 61.09336853 22.76913452 C61.0877629 25.38779325 61.07520948 28.00636704 61.0625 30.625 C61.05748572 32.39843627 61.05292269 34.17187387 61.04882812 35.9453125 C61.03779164 40.29690782 61.02052325 44.6484395 61 49 C59.26596578 48.00550842 57.53193156 47.01101685 55.79789734 46.01652527 C53.50027833 44.717459 51.16941374 43.50032457 48.8125 42.3125 C47.99394531 41.89613281 47.17539062 41.47976562 46.33203125 41.05078125 C42.32705493 39.24619393 38.79347361 38.86092329 34.4140625 38.75390625 C33.31707031 38.72103516 32.22007813 38.68816406 31.08984375 38.65429688 C28.81908462 38.59413584 26.54825007 38.53674344 24.27734375 38.48242188 C15.94187959 38.22587158 8.37552637 37.19650377 0 36 C0 24.12 0 12.24 0 0 Z " fill="#E81B23" transform="translate(3,3)"/>
<path d="M0 0 C1.66226372 -0.01925285 1.66226372 -0.01925285 3.35810852 -0.03889465 C5.16894173 -0.04997505 5.16894173 -0.04997505 7.01635742 -0.0612793 C8.2484343 -0.06935104 9.48051117 -0.07742279 10.74992371 -0.08573914 C13.3635415 -0.0996004 15.97717755 -0.11031336 18.59082031 -0.11816406 C21.2730174 -0.12702639 23.95469679 -0.14789973 26.63671875 -0.1796875 C30.49259196 -0.22220067 34.34777942 -0.23851227 38.20385742 -0.2487793 C39.40500687 -0.26628738 40.60615631 -0.28379547 41.84370422 -0.30183411 C43.52015266 -0.29744576 43.52015266 -0.29744576 45.23046875 -0.29296875 C46.21340408 -0.29883499 47.19633942 -0.30470123 48.20906067 -0.31074524 C51.55806128 0.31744663 52.74123129 1.51821618 54.80932617 4.17700195 C55.29852041 7.53147676 55.26335191 9.38216535 53.57373047 12.34008789 C51.80932617 14.17700195 51.80932617 14.17700195 49.6328125 14.63110352 C48.81063232 14.61015625 47.98845215 14.58920898 47.14135742 14.56762695 C46.24868164 14.55473633 45.35600586 14.5418457 44.4362793 14.52856445 C43.50750977 14.49504883 42.57874023 14.4615332 41.62182617 14.42700195 C40.21126953 14.39993164 40.21126953 14.39993164 38.7722168 14.37231445 C36.45022728 14.32516746 34.13028928 14.25938426 31.80932617 14.17700195 C31.81598801 14.98466507 31.82264984 15.79232819 31.82951355 16.62446594 C31.88959674 24.23175992 31.93528619 31.83893904 31.96476269 39.44640827 C31.98042626 43.35760422 32.0016768 47.26860429 32.03564453 51.1796875 C32.06821386 54.95332454 32.08617398 58.72677305 32.0939579 62.50053978 C32.09950583 63.94108232 32.11033953 65.38161441 32.12651634 66.8220768 C32.14825576 68.83782535 32.14955128 70.85376316 32.14990234 72.86962891 C32.15656418 74.01768509 32.16322601 75.16574127 32.17008972 76.34858704 C31.80932617 79.17700195 31.80932617 79.17700195 30.46382141 81.04411316 C27.95129837 82.76452258 25.81668714 82.61081646 22.80932617 82.61450195 C21.23151367 82.64350586 21.23151367 82.64350586 19.62182617 82.6730957 C16.80932617 82.17700195 16.80932617 82.17700195 15.15483093 80.54156494 C13.40861168 77.47279437 13.44793988 75.37174731 13.46875 71.84790039 C13.46897659 70.56687439 13.46920319 69.28584839 13.46943665 67.96600342 C13.48475543 66.57279102 13.5004034 65.17958222 13.51635742 63.78637695 C13.5219552 62.35720261 13.52622444 60.9280225 13.52922058 59.49884033 C13.54065516 55.74385585 13.57010997 51.98922149 13.60333252 48.234375 C13.63406357 44.40019466 13.64773238 40.56595755 13.6628418 36.73168945 C13.69498137 29.21330096 13.74616047 21.69520058 13.80932617 14.17700195 C13.24947021 14.1927124 12.68961426 14.20842285 12.11279297 14.22460938 C9.57424027 14.28700043 7.03584888 14.32600414 4.49682617 14.36450195 C3.61575195 14.38963867 2.73467773 14.41477539 1.8269043 14.44067383 C0.55556641 14.45517578 0.55556641 14.45517578 -0.74145508 14.4699707 C-1.52174072 14.48568115 -2.30202637 14.5013916 -3.10595703 14.51757812 C-5.73470309 14.08812494 -6.56862824 13.24821985 -8.19067383 11.17700195 C-9.06567383 8.80200195 -9.06567383 8.80200195 -9.19067383 6.17700195 C-6.57930696 0.95426822 -5.71026907 0.05732819 0 0 Z " fill="#0D0D0D" transform="translate(160.190673828125,27.822998046875)"/>
<path d="M0 0 C0.33 0 0.66 0 1 0 C1.33 30.69 1.66 61.38 2 93 C-13.73910881 97.29248422 -28.65814448 98.88818003 -44 92 C-42.515 91.505 -42.515 91.505 -41 91 C-41 62.29 -41 33.58 -41 4 C-40.67 4 -40.34 4 -40 4 C-39.9906543 5.04865234 -39.98130859 6.09730469 -39.97167969 7.17773438 C-39.93155622 11.09937728 -39.86573774 15.02025398 -39.79248047 18.94140625 C-39.76439963 20.63271174 -39.74312146 22.32414532 -39.72900391 24.015625 C-39.70739392 26.45899425 -39.66065666 28.90084425 -39.609375 31.34375 C-39.60814636 32.08991577 -39.60691772 32.83608154 -39.60565186 33.6048584 C-39.43903786 39.6897581 -37.7198576 44.89169745 -33.65936279 49.53210449 C-29.57399994 53.25950044 -25.3390116 54.89753936 -19.8359375 55.06640625 C-14.1478887 54.74388802 -9.07149994 53.1063736 -5 49 C-1.21881444 43.18413788 -0.40043827 38.08325228 -0.390625 31.25 C-0.37408875 30.35128174 -0.35755249 29.45256348 -0.34051514 28.52661133 C-0.29231896 25.68433608 -0.27072776 22.8425947 -0.25 20 C-0.22181653 18.06117147 -0.1918858 16.12236749 -0.16015625 14.18359375 C-0.08656788 9.45577318 -0.03682038 4.72824406 0 0 Z " fill="#555557" transform="translate(84,84)"/>
<path d="M0 0 C0.845625 -0.0103125 1.69125 -0.020625 2.5625 -0.03125 C5.87745133 0.69123939 6.9218385 1.82819138 9 4.5 C9.50120544 7.76342773 9.50120544 7.76342773 9.50170898 11.68359375 C9.50711197 12.39951691 9.51251495 13.11544006 9.51808167 13.85305786 C9.53056914 16.21496166 9.51407924 18.57564646 9.49609375 20.9375 C9.49624874 22.58129948 9.49773771 24.22509933 9.50050354 25.86889648 C9.50188753 29.31217627 9.48932983 32.75503951 9.46655273 36.19824219 C9.43816782 40.61021423 9.44090528 45.0214942 9.45364285 49.43351746 C9.46060037 52.82733056 9.45280995 56.22098391 9.44038582 59.61477661 C9.43587202 61.24145902 9.4355339 62.86815858 9.43945122 64.49484253 C9.44236424 66.76905422 9.42585348 69.0423148 9.40405273 71.31640625 C9.39864975 72.61006104 9.39324677 73.90371582 9.38768005 75.23657227 C8.97835336 78.68221791 8.48302611 80.11671364 6 82.5 C3.1875 83.03125 3.1875 83.03125 0 83 C-1.5778125 83.01546875 -1.5778125 83.01546875 -3.1875 83.03125 C-6 82.5 -6 82.5 -7.65052795 80.91577148 C-9.49713631 77.61004625 -9.38826725 75.09597857 -9.40405273 71.31640625 C-9.41091599 70.60048309 -9.41777924 69.88455994 -9.42485046 69.14694214 C-9.44312158 66.78525854 -9.43928119 64.42423896 -9.43359375 62.0625 C-9.43815505 60.41869897 -9.44346047 58.77489986 -9.44947815 57.13110352 C-9.45840955 53.68790941 -9.45598545 50.24494725 -9.44604492 46.80175781 C-9.43454829 42.38969787 -9.45477658 37.97843744 -9.48396206 33.56648254 C-9.50230798 30.17267779 -9.50203498 26.77906528 -9.49632454 23.38522339 C-9.49617116 21.75852333 -9.50222907 20.13181037 -9.51461601 18.50515747 C-9.52949665 16.23079232 -9.51887299 13.95791244 -9.50170898 11.68359375 C-9.50154282 10.38993896 -9.50137665 9.09628418 -9.50120544 7.76342773 C-8.62644824 2.06774552 -5.60439779 -0.06834631 0 0 Z " fill="#0D0D0D" transform="translate(282,27.5)"/>
<path d="M0 0 C0.70125 -0.01675781 1.4025 -0.03351563 2.125 -0.05078125 C2.74375 0.06910156 3.3625 0.18898437 4 0.3125 C6.32891212 3.80586818 6.23551143 5.17257865 6.1953125 9.29296875 C6.18564453 11.03803711 6.18564453 11.03803711 6.17578125 12.81835938 C6.15902344 14.03330078 6.14226562 15.24824219 6.125 16.5 C6.11597656 17.72654297 6.10695313 18.95308594 6.09765625 20.21679688 C6.07406017 23.24889295 6.04113841 26.28059938 6 29.3125 C9.63 29.3125 13.26 29.3125 17 29.3125 C16.99214478 28.04805054 16.99214478 28.04805054 16.98413086 26.75805664 C16.96712174 23.64022064 16.95456594 20.52240823 16.94506836 17.40454102 C16.94002943 16.05329614 16.93319823 14.70205674 16.92456055 13.35083008 C16.91247581 11.41229566 16.90730172 9.473722 16.90234375 7.53515625 C16.89710693 6.36734619 16.89187012 5.19953613 16.88647461 3.99633789 C17 1.3125 17 1.3125 18 0.3125 C23.73611111 0.03935185 23.73611111 0.03935185 26 0.3125 C29.05707435 3.36957435 28.32514176 6.94420237 28.3359375 11.046875 C28.3425943 11.91765686 28.3492511 12.78843872 28.35610962 13.68560791 C28.36624741 15.5315947 28.37092629 17.37761822 28.37060547 19.22363281 C28.37496166 22.03773249 28.41122083 24.8502423 28.44921875 27.6640625 C28.45509022 29.45832798 28.4590574 31.2526009 28.4609375 33.046875 C28.47530853 33.88458435 28.48967957 34.7222937 28.50448608 35.58538818 C28.46276216 40.96879855 27.58138184 44.04163871 24 48.3125 C19.41051216 51.30901363 13.60507997 50.60555828 8.3125 50.5625 C7.35021484 50.57023437 6.38792969 50.57796875 5.39648438 50.5859375 C4.47802734 50.58335937 3.55957031 50.58078125 2.61328125 50.578125 C1.35704956 50.57474121 1.35704956 50.57474121 0.07543945 50.57128906 C-2 50.3125 -2 50.3125 -4 48.3125 C-4.1875 45.25 -4.1875 45.25 -4 42.3125 C-3 41.3125 -3 41.3125 -1.14233398 41.19897461 C0.04380493 41.20682983 0.04380493 41.20682983 1.25390625 41.21484375 C2.53491211 41.21967773 2.53491211 41.21967773 3.84179688 41.22460938 C4.73962891 41.23298828 5.63746094 41.24136719 6.5625 41.25 C7.46419922 41.25451172 8.36589844 41.25902344 9.29492188 41.26367188 C11.53001314 41.27549775 13.76497437 41.2919778 16 41.3125 C16 40.6525 16 39.9925 16 39.3125 C15.11957031 39.27511719 14.23914063 39.23773438 13.33203125 39.19921875 C12.17058594 39.13347656 11.00914062 39.06773437 9.8125 39 C8.08966797 38.91298828 8.08966797 38.91298828 6.33203125 38.82421875 C1.58531982 38.09523962 -1.92561106 36.00176672 -5 32.3125 C-6.77097709 26.99956874 -6.18464142 21.30993748 -6.1875 15.75 C-6.19974609 14.49251953 -6.21199219 13.23503906 -6.22460938 11.93945312 C-6.22750977 10.14217773 -6.22750977 10.14217773 -6.23046875 8.30859375 C-6.23457764 7.20700928 -6.23868652 6.1054248 -6.24291992 4.97045898 C-5.84581865 0.62549262 -3.97614293 0.02192726 0 0 Z " fill="#090909" transform="translate(481,130.6875)"/>
<path d="M0 0 C1.875 -0.36328125 1.875 -0.36328125 4 -0.3125 C4.70125 -0.30863281 5.4025 -0.30476563 6.125 -0.30078125 C8 0 8 0 10 2 C10.17532289 4.86888581 10.23137614 7.63992645 10.1953125 10.5078125 C10.1924826 11.34843231 10.18965271 12.18905212 10.18673706 13.05514526 C10.1755243 15.74524046 10.15041803 18.4350051 10.125 21.125 C10.1149716 22.94660978 10.10584551 24.76822477 10.09765625 26.58984375 C10.07558142 31.06002358 10.04104434 35.52995571 10 40 C11.97909398 40.02686553 13.95828971 40.04633375 15.9375 40.0625 C17.03964844 40.07410156 18.14179688 40.08570313 19.27734375 40.09765625 C21.91447634 40.31262571 21.91447634 40.31262571 23 39 C23.13542809 36.28629531 23.21056807 33.59443564 23.24609375 30.87890625 C23.27902796 29.20507281 23.31223968 27.53124482 23.34570312 25.85742188 C23.39318011 23.20633651 23.43760684 20.55527391 23.47680664 17.90405273 C23.51642134 15.35376766 23.56798868 12.80394098 23.62109375 10.25390625 C23.6295079 9.45803604 23.63792206 8.66216583 23.64659119 7.84217834 C23.77332648 2.22667352 23.77332648 2.22667352 26 0 C28.71454956 -0.32752234 31.25230759 -0.1308425 34 0 C37.00916719 3.00916719 35.32401114 14.40811896 35.35009766 18.69018555 C35.36662584 20.67956262 35.39387426 22.66888108 35.43212891 24.65795898 C35.48702561 27.52619238 35.50879453 30.39302999 35.5234375 33.26171875 C35.54610687 34.14631271 35.56877625 35.03090668 35.59213257 35.94230652 C35.57754647 40.2269357 35.37030008 43.1177302 32.65478516 46.54614258 C27.89763549 50.9432468 22.8381429 50.28313704 16.6875 50.375 C15.28081055 50.43107422 15.28081055 50.43107422 13.84570312 50.48828125 C9.42622546 50.54434228 6.04440523 50.57137442 2.45703125 47.7890625 C-2.02568792 42.70057047 -2.30011085 38.11752692 -2.265625 31.5234375 C-2.26753845 30.7163736 -2.2694519 29.90930969 -2.27142334 29.07778931 C-2.27277998 27.37835375 -2.26912004 25.67890764 -2.26074219 23.97949219 C-2.25000708 21.37671754 -2.26066927 18.77462869 -2.2734375 16.171875 C-2.27211636 14.51822764 -2.26955491 12.86458071 -2.265625 11.2109375 C-2.26967346 10.43277679 -2.27372192 9.65461609 -2.27789307 8.85287476 C-2.24469177 5.03785495 -2.16713117 3.25069676 0 0 Z " fill="#0B0B0B" transform="translate(176,119)"/>
<path d="M0 0 C1.28293945 -0.0309375 1.28293945 -0.0309375 2.59179688 -0.0625 C7.40699875 -0.09233859 10.86802537 -0.03016777 14.6875 3.25 C17.58525965 7.47370422 17.33383976 12.32664651 16.6875 17.25 C14.35375876 21.39887332 12.14286551 22.8357969 7.6875 24.25 C4.35546875 24.4453125 4.35546875 24.4453125 0.875 24.375 C-0.28644531 24.35695312 -1.44789063 24.33890625 -2.64453125 24.3203125 C-3.52496094 24.29710937 -4.40539062 24.27390625 -5.3125 24.25 C-4.9825 25.57 -4.6525 26.89 -4.3125 28.25 C-3.03632813 28.29898438 -1.76015625 28.34796875 -0.4453125 28.3984375 C1.22398072 28.47346191 2.89325046 28.54900988 4.5625 28.625 C5.82513672 28.67140625 5.82513672 28.67140625 7.11328125 28.71875 C7.91894531 28.75742188 8.72460938 28.79609375 9.5546875 28.8359375 C10.29831543 28.8673584 11.04194336 28.8987793 11.80810547 28.93115234 C13.6875 29.25 13.6875 29.25 15.6875 31.25 C15.9375 33.75 15.9375 33.75 15.6875 36.25 C12.7154702 39.2220298 10.00091746 38.5423532 5.93554688 38.57226562 C4.42057617 38.56743164 4.42057617 38.56743164 2.875 38.5625 C1.87662109 38.57861328 0.87824219 38.59472656 -0.15039062 38.61132812 C-9.44327359 38.61751925 -9.44327359 38.61751925 -13.3125 35.25 C-17.59855623 30.49682728 -16.82701773 25.47970458 -16.8125 19.375 C-16.84085937 18.29863281 -16.86921875 17.22226563 -16.8984375 16.11328125 C-16.92025376 7.26678772 -16.92025376 7.26678772 -13.90625 3.5546875 C-9.37955571 -0.4675258 -5.82403505 0.0346411 0 0 Z M-5.3125 10.25 C-5.35313832 11.91617115 -5.355221 13.58388095 -5.3125 15.25 C-3.66675434 15.27688151 -2.02088587 15.29634123 -0.375 15.3125 C0.99978516 15.32990234 0.99978516 15.32990234 2.40234375 15.34765625 C4.65343327 15.50949049 4.65343327 15.50949049 5.6875 14.25 C5.72813832 12.58382885 5.730221 10.91611905 5.6875 9.25 C4.04175434 9.22311849 2.39588587 9.20365877 0.75 9.1875 C-0.62478516 9.17009766 -0.62478516 9.17009766 -2.02734375 9.15234375 C-4.27843327 8.99050951 -4.27843327 8.99050951 -5.3125 10.25 Z " fill="#070707" transform="translate(331.3125,130.75)"/>
<path d="M0 0 C1.91015625 0.1328125 1.91015625 0.1328125 3.91015625 1.1328125 C4.57015625 0.8028125 5.23015625 0.4728125 5.91015625 0.1328125 C8.00964226 -0.04190598 10.11640033 -0.13436602 12.22265625 -0.1796875 C13.35316406 -0.21707031 14.48367187 -0.25445312 15.6484375 -0.29296875 C19.62364524 0.22595058 21.14871594 1.26384708 23.91015625 4.1328125 C25.7841564 7.91630986 26.16670986 11.00501648 26.17578125 15.203125 C26.17964844 16.91822266 26.17964844 16.91822266 26.18359375 18.66796875 C26.17585938 19.85261719 26.168125 21.03726563 26.16015625 22.2578125 C26.17175781 24.04638672 26.17175781 24.04638672 26.18359375 25.87109375 C26.18101562 27.01191406 26.1784375 28.15273437 26.17578125 29.328125 C26.17352539 30.36984863 26.17126953 31.41157227 26.16894531 32.48486328 C25.91015625 35.1328125 25.91015625 35.1328125 23.91015625 38.1328125 C21.96484375 38.42578125 21.96484375 38.42578125 19.78515625 38.3203125 C18.50640625 38.2584375 17.22765625 38.1965625 15.91015625 38.1328125 C13.97118413 34.85356843 13.61690097 32.27748031 13.49609375 28.4921875 C13.45742187 27.42226562 13.41875 26.35234375 13.37890625 25.25 C13.34796875 24.13882813 13.31703125 23.02765625 13.28515625 21.8828125 C13.24648437 20.75617188 13.2078125 19.62953125 13.16796875 18.46875 C13.07378289 15.69026702 12.98816039 12.91178916 12.91015625 10.1328125 C9.94015625 10.1328125 6.97015625 10.1328125 3.91015625 10.1328125 C3.92062988 10.90995605 3.93110352 11.68709961 3.94189453 12.48779297 C3.98335907 15.9944335 4.00945203 19.50102256 4.03515625 23.0078125 C4.05191406 24.23113281 4.06867188 25.45445312 4.0859375 26.71484375 C4.09238281 27.88144531 4.09882813 29.04804688 4.10546875 30.25 C4.11594238 31.32878418 4.12641602 32.40756836 4.13720703 33.51904297 C3.91015625 36.1328125 3.91015625 36.1328125 1.91015625 38.1328125 C-1.58984375 38.3828125 -1.58984375 38.3828125 -5.08984375 38.1328125 C-7.61568982 35.60696643 -7.32688699 34.04074757 -7.34208679 30.5955658 C-7.33490128 29.84344315 -7.32771576 29.0913205 -7.3203125 28.31640625 C-7.31985428 27.54474625 -7.31939606 26.77308624 -7.31892395 25.9780426 C-7.31590162 24.34643008 -7.30801588 22.71482045 -7.2956543 21.08325195 C-7.27739162 18.5768825 -7.27514463 16.07088217 -7.27539062 13.56445312 C-7.27047573 11.98176762 -7.26464754 10.39908463 -7.2578125 8.81640625 C-7.25669968 8.06225937 -7.25558685 7.30811249 -7.25444031 6.53111267 C-7.19308911 -0.14454619 -6.66432388 0.02418992 0 0 Z " fill="#040404" transform="translate(226.08984375,130.8671875)"/>
<path d="M0 0 C1.60294922 0.00290039 1.60294922 0.00290039 3.23828125 0.00585938 C4.91083984 0.02422852 4.91083984 0.02422852 6.6171875 0.04296875 C8.30134766 0.04393555 8.30134766 0.04393555 10.01953125 0.04492188 C18.35198043 0.09026168 18.35198043 0.09026168 19.4921875 1.23046875 C19.6796875 4.16796875 19.6796875 4.16796875 19.4921875 7.23046875 C17.4921875 9.23046875 17.4921875 9.23046875 15.52099609 9.45751953 C14.73547363 9.4470459 13.94995117 9.43657227 13.140625 9.42578125 C12.28984375 9.41933594 11.4390625 9.41289062 10.5625 9.40625 C9.22832031 9.38111328 9.22832031 9.38111328 7.8671875 9.35546875 C6.97 9.34644531 6.0728125 9.33742187 5.1484375 9.328125 C2.92942164 9.30451845 0.71093673 9.27159185 -1.5078125 9.23046875 C-1.1778125 10.55046875 -0.8478125 11.87046875 -0.5078125 13.23046875 C0.51699219 13.25625 1.54179687 13.28203125 2.59765625 13.30859375 C3.95837449 13.36489933 5.31904993 13.42224612 6.6796875 13.48046875 C7.68999023 13.50173828 7.68999023 13.50173828 8.72070312 13.5234375 C13.56041881 13.75952119 16.0556846 14.84525694 19.4921875 18.23046875 C21.77545686 21.27482789 21.91078058 24.43647665 21.8125 28.19921875 C21.27862614 31.58476033 19.68492652 33.67227323 17.4921875 36.23046875 C14.32110102 38.251398 11.82919513 38.47727947 8.10546875 38.4609375 C6.5750293 38.45803711 6.5750293 38.45803711 5.01367188 38.45507812 C3.95470703 38.44283203 2.89574219 38.43058594 1.8046875 38.41796875 C0.19883789 38.41700195 0.19883789 38.41700195 -1.43945312 38.41601562 C-9.36751136 38.37076989 -9.36751136 38.37076989 -10.5078125 37.23046875 C-10.6328125 33.73046875 -10.6328125 33.73046875 -10.5078125 30.23046875 C-9.5078125 29.23046875 -9.5078125 29.23046875 -7.55834961 29.11694336 C-6.7256958 29.12218018 -5.89304199 29.12741699 -5.03515625 29.1328125 C-4.13603516 29.13603516 -3.23691406 29.13925781 -2.31054688 29.14257812 C-1.36501953 29.15095703 -0.41949219 29.15933594 0.5546875 29.16796875 C1.50408203 29.17248047 2.45347656 29.17699219 3.43164062 29.18164062 C5.78521815 29.19346765 8.13867227 29.2099485 10.4921875 29.23046875 C10.4921875 27.58046875 10.4921875 25.93046875 10.4921875 24.23046875 C8.97238281 24.30007812 8.97238281 24.30007812 7.421875 24.37109375 C6.07034218 24.40863633 4.71877722 24.44503381 3.3671875 24.48046875 C2.70203125 24.51398438 2.036875 24.5475 1.3515625 24.58203125 C-3.78653441 24.68277825 -6.54851223 23.42653041 -10.5078125 20.23046875 C-12.85597127 17.24190304 -12.92297786 14.01151737 -12.83203125 10.26171875 C-12.29783654 6.91495671 -10.63905024 4.78795404 -8.5078125 2.23046875 C-5.12592733 -0.02412136 -3.95882421 -0.01654105 0 0 Z " fill="#050505" transform="translate(395.5078125,130.76953125)"/>
<path d="M0 0 C0.70125 -0.01675781 1.4025 -0.03351563 2.125 -0.05078125 C3.053125 0.12904297 3.053125 0.12904297 4 0.3125 C6.13586678 3.51630017 6.23132175 4.33189967 6.125 8 C6.10695313 8.80824219 6.08890625 9.61648437 6.0703125 10.44921875 C6.04710937 11.06410156 6.02390625 11.67898437 6 12.3125 C6.69867188 12.27769531 7.39734375 12.24289063 8.1171875 12.20703125 C9.48230469 12.16642578 9.48230469 12.16642578 10.875 12.125 C11.77992188 12.09019531 12.68484375 12.05539063 13.6171875 12.01953125 C14.79667969 12.16455078 14.79667969 12.16455078 16 12.3125 C18 15.3125 18 15.3125 17.75 17.9375 C17.5025 18.72125 17.255 19.505 17 20.3125 C15 21.3125 15 21.3125 6 21.3125 C6 27.9125 6 34.5125 6 41.3125 C8.660625 41.250625 8.660625 41.250625 11.375 41.1875 C14.3984375 41.1171875 14.3984375 41.1171875 17 41.3125 C19 43.3125 19 43.3125 19.25 45.8125 C19 48.3125 19 48.3125 17 50.3125 C14.51318105 50.53910954 12.17362651 50.63684998 9.6875 50.625 C8.37136719 50.64175781 7.05523437 50.65851563 5.69921875 50.67578125 C1.77997436 50.29089241 -0.00577686 49.82976724 -3 47.3125 C-6.68935091 42.11059524 -6.35758033 37.05166983 -6.1875 30.9375 C-6.17396484 30.01066406 -6.16042969 29.08382812 -6.14648438 28.12890625 C-6.11133881 25.85616002 -6.06214132 23.58464153 -6 21.3125 C-6.94875 21.374375 -7.8975 21.43625 -8.875 21.5 C-9.90625 21.438125 -10.9375 21.37625 -12 21.3125 C-14 18.3125 -14 18.3125 -13.6875 15.6875 C-13 13.3125 -13 13.3125 -12 12.3125 C-10.00041636 12.27169217 -7.99954746 12.26995644 -6 12.3125 C-6.02320313 11.61382812 -6.04640625 10.91515625 -6.0703125 10.1953125 C-6.09738281 8.83019531 -6.09738281 8.83019531 -6.125 7.4375 C-6.14820313 6.53257813 -6.17140625 5.62765625 -6.1953125 4.6953125 C-5.85135667 0.49905138 -3.75335072 0.02069863 0 0 Z " fill="#000000" transform="translate(452,118.6875)"/>
<path d="M0 0 C3.3 0 6.6 0 10 0 C13.50247797 8.27180968 16.80839964 16.60369543 20 25 C20.3556604 23.91730835 20.3556604 23.91730835 20.71850586 22.81274414 C21.78840239 19.56163243 22.86288718 16.31205569 23.9375 13.0625 C24.31068359 11.92619141 24.68386719 10.78988281 25.06835938 9.61914062 C25.42607422 8.53955078 25.78378906 7.45996094 26.15234375 6.34765625 C26.48226318 5.34742432 26.81218262 4.34719238 27.15209961 3.31665039 C28 1 28 1 29 0 C31.33297433 -0.04092937 33.66705225 -0.04241723 36 0 C37.46542189 4.6425457 36.32070806 8.04446196 34.7265625 12.453125 C34.48336273 13.15395203 34.24016296 13.85477905 33.98959351 14.57684326 C33.21270381 16.80537915 32.4187749 19.02743028 31.625 21.25 C31.09790704 22.76005011 30.57185366 24.27046353 30.046875 25.78125 C29.54520782 27.21387012 29.04263519 28.64617357 28.5390625 30.078125 C28.18118149 31.09679657 28.18118149 31.09679657 27.81607056 32.13604736 C26.11851695 36.88148305 26.11851695 36.88148305 25 38 C23.04830439 38.2039085 21.08636576 38.3138543 19.125 38.375 C18.05507813 38.42398438 16.98515625 38.47296875 15.8828125 38.5234375 C13 38 13 38 11.49072266 35.88549805 C8.92066851 30.91080595 7.00586245 25.67914789 5.01904297 20.45239258 C4.24930709 18.43568458 3.46290126 16.42599156 2.67578125 14.41601562 C2.18386087 13.13060393 1.69294038 11.84480904 1.203125 10.55859375 C0.75614258 9.39642334 0.30916016 8.23425293 -0.15136719 7.03686523 C-1 4 -1 4 0 0 Z " fill="#060606" transform="translate(275,131)"/>
<path d="M0 0 C1.91015625 0.1328125 1.91015625 0.1328125 3.91015625 1.1328125 C4.57015625 0.8028125 5.23015625 0.4728125 5.91015625 0.1328125 C7.7395019 -0.01398684 9.57515868 -0.08821385 11.41015625 -0.1171875 C12.8796875 -0.15585938 12.8796875 -0.15585938 14.37890625 -0.1953125 C15.21421875 -0.08703125 16.04953125 0.02125 16.91015625 0.1328125 C18.91015625 3.1328125 18.91015625 3.1328125 18.66015625 5.7578125 C18.41265625 6.5415625 18.16515625 7.3253125 17.91015625 8.1328125 C15.2083257 9.48372778 12.79207419 9.47139308 9.78515625 9.6953125 C8.68945312 9.77910156 7.59375 9.86289063 6.46484375 9.94921875 C5.62179687 10.00980469 4.77875 10.07039062 3.91015625 10.1328125 C3.92062988 10.90995605 3.93110352 11.68709961 3.94189453 12.48779297 C3.98335907 15.9944335 4.00945203 19.50102256 4.03515625 23.0078125 C4.05191406 24.23113281 4.06867188 25.45445312 4.0859375 26.71484375 C4.09238281 27.88144531 4.09882813 29.04804688 4.10546875 30.25 C4.11594238 31.32878418 4.12641602 32.40756836 4.13720703 33.51904297 C3.91015625 36.1328125 3.91015625 36.1328125 1.91015625 38.1328125 C-1.58984375 38.3828125 -1.58984375 38.3828125 -5.08984375 38.1328125 C-7.61568982 35.60696643 -7.32688699 34.04074757 -7.34208679 30.5955658 C-7.33490128 29.84344315 -7.32771576 29.0913205 -7.3203125 28.31640625 C-7.31985428 27.54474625 -7.31939606 26.77308624 -7.31892395 25.9780426 C-7.31590162 24.34643008 -7.30801588 22.71482045 -7.2956543 21.08325195 C-7.27739162 18.5768825 -7.27514463 16.07088217 -7.27539062 13.56445312 C-7.27047573 11.98176762 -7.26464754 10.39908463 -7.2578125 8.81640625 C-7.25669968 8.06225937 -7.25558685 7.30811249 -7.25444031 6.53111267 C-7.19308911 -0.14454619 -6.66432388 0.02418992 0 0 Z " fill="#050505" transform="translate(362.08984375,130.8671875)"/>
<path d="M0 0 C1.23556641 0.01740234 1.23556641 0.01740234 2.49609375 0.03515625 C3.32238281 0.04417969 4.14867187 0.05320313 5 0.0625 C5.63808594 0.07410156 6.27617187 0.08570313 6.93359375 0.09765625 C8.45623484 3.14293844 8.09644912 6.31910871 8.1015625 9.66015625 C8.1048909 10.40724854 8.1082193 11.15434082 8.11164856 11.92407227 C8.11671341 13.50438826 8.11905702 15.08471496 8.11889648 16.66503906 C8.12108509 19.08806868 8.13925076 21.51064461 8.15820312 23.93359375 C8.16113667 25.46744635 8.16312173 27.00130113 8.1640625 28.53515625 C8.17124802 29.26226807 8.17843353 29.98937988 8.18583679 30.73852539 C8.16242178 35.86882822 8.16242178 35.86882822 5.93359375 38.09765625 C2.43359375 38.34765625 2.43359375 38.34765625 -1.06640625 38.09765625 C-3.59225232 35.57181018 -3.30344949 34.00559132 -3.31864929 30.56040955 C-3.31146378 29.8082869 -3.30427826 29.05616425 -3.296875 28.28125 C-3.29641678 27.50959 -3.29595856 26.73792999 -3.29548645 25.94288635 C-3.29246412 24.31127383 -3.28457838 22.6796642 -3.2722168 21.0480957 C-3.25395412 18.54172625 -3.25170713 16.03572592 -3.25195312 13.52929688 C-3.24703823 11.94661137 -3.24121004 10.36392838 -3.234375 8.78125 C-3.23326218 8.02710312 -3.23214935 7.27295624 -3.23100281 6.49595642 C-3.1726811 0.14993767 -3.1726811 0.14993767 0 0 Z " fill="#020202" transform="translate(426.06640625,130.90234375)"/>
<path d="M0 0 C5.97873264 0.11935764 5.97873264 0.11935764 7.08984375 1.23046875 C7.20316468 3.8006636 7.2540186 6.34298352 7.2578125 8.9140625 C7.2611409 9.68476578 7.2644693 10.45546906 7.26789856 11.24952698 C7.27297085 12.88289796 7.27530679 14.51627935 7.27514648 16.1496582 C7.27733155 18.65398174 7.2954797 21.15786396 7.31445312 23.66210938 C7.31738722 25.24609224 7.31937191 26.8300772 7.3203125 28.4140625 C7.32749802 29.16618515 7.33468353 29.9183078 7.34208679 30.69322205 C7.31866654 36.00164596 7.31866654 36.00164596 5.08984375 38.23046875 C1.58984375 38.48046875 1.58984375 38.48046875 -1.91015625 38.23046875 C-4.39866299 35.74196201 -4.15627955 34.26836815 -4.18804932 30.87133789 C-4.18400085 30.14422607 -4.17995239 29.41711426 -4.17578125 28.66796875 C-4.1776947 27.92087646 -4.17960815 27.17378418 -4.18157959 26.40405273 C-4.18294123 24.82372704 -4.17924625 23.24339017 -4.17089844 21.66308594 C-4.16019825 19.23997953 -4.17079404 16.81761452 -4.18359375 14.39453125 C-4.18227215 12.86067544 -4.17970975 11.3268201 -4.17578125 9.79296875 C-4.17982971 9.06585693 -4.18387817 8.33874512 -4.18804932 7.58959961 C-4.12172063 0.49730372 -4.12172063 0.49730372 0 0 Z " fill="#0C0C0C" transform="translate(262.91015625,130.76953125)"/>
<path d="M0 0 C4.29 0.33 8.58 0.66 13 1 C13 1.33 13 1.66 13 2 C9.37 2 5.74 2 2 2 C2 12.89 2 23.78 2 35 C10.89940267 35.28828863 10.89940267 35.28828863 19.79907227 35.56811523 C20.91854248 35.60622314 22.0380127 35.64433105 23.19140625 35.68359375 C24.89598999 35.73858032 24.89598999 35.73858032 26.63500977 35.79467773 C30.13181545 36.00804301 33.53991975 36.45954277 37 37 C37 37.33 37 37.66 37 38 C33.45840763 38.05949948 29.91694804 38.09408524 26.375 38.125 C25.3953125 38.14175781 24.415625 38.15851562 23.40625 38.17578125 C15.23970494 38.22881076 8.30813264 37.18687609 0 36 C0 24.12 0 12.24 0 0 Z " fill="#AD3C40" transform="translate(3,3)"/>
<path d="M0 0 C0.33 0 0.66 0 1 0 C1 30.36 1 60.72 1 92 C0.67 92 0.34 92 0 92 C-0.33 77.48 -0.66 62.96 -1 48 C-1.99 48.495 -1.99 48.495 -3 49 C-2.47731534 46.23723823 -1.89130413 43.6739124 -1 41 C-0.88734453 39.63484686 -0.82417414 38.26522788 -0.79467773 36.89575195 C-0.77473251 36.07512772 -0.75478729 35.25450348 -0.73423767 34.40901184 C-0.71752518 33.52767075 -0.70081268 32.64632965 -0.68359375 31.73828125 C-0.6524221 30.37959175 -0.6524221 30.37959175 -0.62062073 28.99345398 C-0.55523442 26.09987984 -0.49629096 23.20621493 -0.4375 20.3125 C-0.3943044 18.35090207 -0.35068977 16.38931332 -0.30664062 14.42773438 C-0.19956418 9.61858261 -0.09826586 4.80933954 0 0 Z " fill="#3F3F41" transform="translate(84,84)"/>
<path d="M0 0 C1.47906892 -0.02689216 2.95827483 -0.04634621 4.4375 -0.0625 C5.26121094 -0.07410156 6.08492188 -0.08570312 6.93359375 -0.09765625 C9 0 9 0 10 1 C10.1875 3.9375 10.1875 3.9375 10 7 C8 9 8 9 4.5 9.25 C1 9 1 9 -1 7 C-0.625 3.375 -0.625 3.375 0 0 Z " fill="#181818" transform="translate(260,119)"/>
<path d="M0 0 C1.23556641 0.01740234 1.23556641 0.01740234 2.49609375 0.03515625 C3.32238281 0.04417969 4.14867187 0.05320312 5 0.0625 C5.63808594 0.07410156 6.27617187 0.08570312 6.93359375 0.09765625 C7.26359375 2.40765625 7.59359375 4.71765625 7.93359375 7.09765625 C4.48113551 9.39929507 2.98620662 9.44255947 -1.06640625 9.09765625 C-3.06640625 7.09765625 -3.06640625 7.09765625 -3.25390625 4.03515625 C-3.00540899 0.14203256 -3.00540899 0.14203256 0 0 Z " fill="#000000" transform="translate(426.06640625,118.90234375)"/>
<path d="M0 0 C0 11.88 0 23.76 0 36 C-1.65 36 -3.3 36 -5 36 C-3.515 35.505 -3.515 35.505 -2 35 C-2 24.11 -2 13.22 -2 2 C-5.63 2 -9.26 2 -13 2 C-13 1.67 -13 1.34 -13 1 C-11.39602723 0.83147753 -9.7918131 0.66525114 -8.1875 0.5 C-7.29417969 0.4071875 -6.40085937 0.314375 -5.48046875 0.21875 C-3 0 -3 0 0 0 Z " fill="#AB383C" transform="translate(125,3)"/>
</svg>
